<svg width="347" height="252" viewBox="0 0 347 252" fill="none" xmlns="http://www.w3.org/2000/svg">
<path d="M346 8.98633C346 6.86822 345.164 4.83688 343.675 3.33915C342.186 1.84143 340.166 1.00001 338.061 1H170.221C168.116 1.00001 166.096 1.84143 164.608 3.33915C163.119 4.83688 162.282 6.86822 162.282 8.98633V18.7827H346V8.98633Z" fill="#EFF3FC"/>
<mask id="mask0_439_705" style="mask-type:luminance" maskUnits="userSpaceOnUse" x="162" y="1" width="184" height="18">
<path d="M346 8.98633C346 6.86822 345.164 4.83688 343.675 3.33915C342.186 1.84143 340.166 1.00001 338.061 1H170.221C168.116 1.00001 166.096 1.84143 164.608 3.33915C163.119 4.83688 162.282 6.86822 162.282 8.98633V18.7827H346V8.98633Z" fill="white"/>
</mask>
<g mask="url(#mask0_439_705)">
<path d="M249.196 -3.51155C218.955 5.91439 351.418 -4.41185 350.566 11.891C349.714 28.1939 348.011 -12.509 348.011 -12.509L282.418 -10.7953" fill="#D6DCF2"/>
</g>
<path d="M346 8.98633C346 6.86822 345.164 4.83688 343.675 3.33915C342.186 1.84143 340.166 1.00001 338.061 1H170.221C168.116 1.00001 166.096 1.84143 164.608 3.33915C163.119 4.83688 162.282 6.86822 162.282 8.98633V18.7827H346V8.98633Z" stroke="#190000" stroke-width="0.5" stroke-linecap="round" stroke-linejoin="round"/>
<path d="M162.282 18.7825V116.559C162.282 118.677 163.119 120.708 164.608 122.206C166.096 123.704 168.116 124.545 170.221 124.545H338.061C340.166 124.545 342.186 123.704 343.675 122.206C345.164 120.708 346 118.677 346 116.559V18.7825H162.282Z" fill="#D6DCF2"/>
<mask id="mask1_439_705" style="mask-type:luminance" maskUnits="userSpaceOnUse" x="162" y="18" width="184" height="107">
<path d="M162.282 18.7825V116.559C162.282 118.677 163.119 120.708 164.608 122.206C166.096 123.704 168.116 124.545 170.221 124.545H338.061C340.166 124.545 342.186 123.704 343.675 122.206C345.164 120.708 346 118.677 346 116.559V18.7825H162.282Z" fill="white"/>
</mask>
<g mask="url(#mask1_439_705)">
<path d="M158.474 103.979C157.835 130.379 338.061 124.545 338.061 124.545L164.863 156.087L137.391 137.449" fill="#BFC8E2"/>
</g>
<path d="M162.282 18.7825V116.559C162.282 118.677 163.119 120.708 164.608 122.206C166.096 123.704 168.116 124.545 170.221 124.545H338.061C340.166 124.545 342.186 123.704 343.675 122.206C345.164 120.708 346 118.677 346 116.559V18.7825H162.282Z" stroke="#190000" stroke-width="0.5" stroke-linecap="round" stroke-linejoin="round"/>
<path d="M172.263 11.8908C173.478 11.8908 174.462 10.9003 174.462 9.67855C174.462 8.45676 173.478 7.46631 172.263 7.46631C171.049 7.46631 170.064 8.45676 170.064 9.67855C170.064 10.9003 171.049 11.8908 172.263 11.8908Z" fill="#D3575E" stroke="#190000" stroke-width="0.5" stroke-linecap="round" stroke-linejoin="round"/>
<path d="M181.504 11.8908C182.718 11.8908 183.703 10.9003 183.703 9.67855C183.703 8.45676 182.718 7.46631 181.504 7.46631C180.289 7.46631 179.305 8.45676 179.305 9.67855C179.305 10.9003 180.289 11.8908 181.504 11.8908Z" fill="#FBD164" stroke="#190000" stroke-width="0.5" stroke-linecap="round" stroke-linejoin="round"/>
<path d="M190.745 11.8908C191.959 11.8908 192.944 10.9003 192.944 9.67855C192.944 8.45676 191.959 7.46631 190.745 7.46631C189.53 7.46631 188.545 8.45676 188.545 9.67855C188.545 10.9003 189.53 11.8908 190.745 11.8908Z" fill="#357C49" stroke="#190000" stroke-width="0.5" stroke-linecap="round" stroke-linejoin="round"/>
<path d="M328.221 28.6348H180.061C178.225 28.6348 176.737 30.132 176.737 31.979V109.651C176.737 111.498 178.225 112.995 180.061 112.995H328.221C330.057 112.995 331.545 111.498 331.545 109.651V31.979C331.545 30.132 330.057 28.6348 328.221 28.6348Z" fill="#9879C9"/>
<mask id="mask2_439_705" style="mask-type:luminance" maskUnits="userSpaceOnUse" x="176" y="28" width="156" height="85">
<path d="M328.221 28.6348H180.061C178.225 28.6348 176.737 30.132 176.737 31.979V109.651C176.737 111.498 178.225 112.995 180.061 112.995H328.221C330.057 112.995 331.545 111.498 331.545 109.651V31.979C331.545 30.132 330.057 28.6348 328.221 28.6348Z" fill="white"/>
</mask>
<g mask="url(#mask2_439_705)">
<path d="M327.779 20.0828C331.545 109.651 155.918 116.627 155.918 116.627L354.613 148.375L367.596 62.7727" fill="#6F4EB9"/>
</g>
<path d="M328.221 28.6348H180.061C178.225 28.6348 176.737 30.132 176.737 31.979V109.651C176.737 111.498 178.225 112.995 180.061 112.995H328.221C330.057 112.995 331.545 111.498 331.545 109.651V31.979C331.545 30.132 330.057 28.6348 328.221 28.6348Z" stroke="#190000" stroke-width="0.5" stroke-linecap="round" stroke-linejoin="round"/>
<path opacity="0.36" d="M254.141 91.6578C267.702 91.6578 278.694 80.586 278.694 66.9283C278.694 53.2705 267.702 42.1987 254.141 42.1987C240.581 42.1987 229.588 53.2705 229.588 66.9283C229.588 80.586 240.581 91.6578 254.141 91.6578Z" fill="#EFF3FC" stroke="#190000" stroke-width="0.5" stroke-linecap="round" stroke-linejoin="round"/>
<path d="M247.3 66.9283V57.8166C247.3 57.5447 247.371 57.2775 247.506 57.0418C247.641 56.8062 247.835 56.6105 248.069 56.4745C248.303 56.3384 248.569 56.2667 248.839 56.2666C249.109 56.2665 249.375 56.3381 249.609 56.474L257.444 61.0299L265.279 65.5858C265.513 65.7221 265.707 65.9178 265.842 66.1535C265.977 66.3891 266.048 66.6563 266.048 66.9283C266.048 67.2003 265.977 67.4676 265.842 67.7032C265.707 67.9389 265.513 68.1346 265.279 68.2709L257.444 72.8268L249.609 77.3826C249.375 77.5186 249.109 77.5901 248.839 77.5901C248.569 77.59 248.303 77.5183 248.069 77.3822C247.835 77.2461 247.641 77.0505 247.506 76.8148C247.371 76.5792 247.3 76.312 247.3 76.0401V66.9283Z" fill="#EFF3FC" stroke="#190000" stroke-width="0.5" stroke-linecap="round" stroke-linejoin="round"/>
<path d="M202.541 51.3164C201.138 52.9622 199.417 54.3039 197.482 55.26" stroke="#6F4EB9" stroke-width="0.5" stroke-linecap="round" stroke-linejoin="round"/>
<path d="M315.64 97.603L311.807 98.8884" stroke="#6F4EB9" stroke-width="0.5" stroke-linecap="round" stroke-linejoin="round"/>
<path d="M165.455 235.749L221.814 194.904C221.869 194.864 221.906 194.804 221.917 194.737C221.928 194.67 221.912 194.601 221.872 194.545L181.268 137.852C181.238 137.811 181.197 137.78 181.15 137.762C181.102 137.744 181.051 137.741 181.002 137.752C180.952 137.764 180.908 137.79 180.873 137.827C180.839 137.865 180.816 137.911 180.808 137.962L165.054 235.5C165.045 235.55 165.052 235.601 165.073 235.648C165.094 235.694 165.128 235.733 165.171 235.76C165.214 235.786 165.264 235.8 165.315 235.798C165.365 235.796 165.414 235.779 165.455 235.749ZM182.695 207.49L188.726 170.149C188.735 170.099 188.757 170.052 188.792 170.015C188.826 169.977 188.871 169.951 188.92 169.94C188.969 169.928 189.021 169.931 189.068 169.949C189.115 169.967 189.157 169.998 189.186 170.04L204.731 191.744C204.751 191.771 204.765 191.802 204.772 191.835C204.78 191.868 204.781 191.902 204.776 191.935C204.77 191.969 204.759 192.001 204.741 192.029C204.723 192.058 204.7 192.083 204.673 192.103L183.097 207.74C183.056 207.77 183.007 207.786 182.956 207.788C182.906 207.79 182.856 207.777 182.813 207.75C182.77 207.723 182.736 207.684 182.715 207.638C182.694 207.592 182.687 207.54 182.695 207.49Z" fill="#FBD164"/>
<mask id="mask3_439_705" style="mask-type:luminance" maskUnits="userSpaceOnUse" x="165" y="137" width="57" height="99">
<path d="M165.455 235.749L221.814 194.904C221.869 194.864 221.906 194.804 221.917 194.737C221.928 194.67 221.912 194.601 221.872 194.545L181.268 137.852C181.238 137.811 181.197 137.78 181.15 137.762C181.102 137.744 181.051 137.741 181.002 137.752C180.952 137.764 180.908 137.79 180.873 137.827C180.839 137.865 180.816 137.911 180.808 137.962L165.054 235.5C165.045 235.55 165.052 235.601 165.073 235.648C165.094 235.694 165.128 235.733 165.171 235.76C165.214 235.786 165.264 235.8 165.315 235.798C165.365 235.796 165.414 235.779 165.455 235.749ZM182.695 207.49L188.726 170.149C188.735 170.099 188.757 170.052 188.792 170.015C188.826 169.977 188.871 169.951 188.92 169.94C188.969 169.928 189.021 169.931 189.068 169.949C189.115 169.967 189.157 169.998 189.186 170.04L204.731 191.744C204.751 191.771 204.765 191.802 204.772 191.835C204.78 191.868 204.781 191.902 204.776 191.935C204.77 191.969 204.759 192.001 204.741 192.029C204.723 192.058 204.7 192.083 204.673 192.103L183.097 207.74C183.056 207.77 183.007 207.786 182.956 207.788C182.906 207.79 182.856 207.777 182.813 207.75C182.77 207.723 182.736 207.684 182.715 207.638C182.694 207.592 182.687 207.54 182.695 207.49Z" fill="white"/>
</mask>
<g mask="url(#mask3_439_705)">
<path d="M187.988 143.514C179.703 134.721 175.523 215.102 167.656 223.374C159.79 231.646 144.924 133.74 144.924 133.74L180.115 118.279" fill="#F9B964"/>
</g>
<path d="M165.455 235.749L221.814 194.904C221.869 194.864 221.906 194.804 221.917 194.737C221.928 194.67 221.912 194.601 221.872 194.545L181.268 137.852C181.238 137.811 181.197 137.78 181.15 137.762C181.102 137.744 181.051 137.741 181.002 137.752C180.952 137.764 180.908 137.79 180.873 137.827C180.839 137.865 180.816 137.911 180.808 137.962L165.054 235.5C165.045 235.55 165.052 235.601 165.073 235.648C165.094 235.694 165.128 235.733 165.171 235.76C165.214 235.786 165.264 235.8 165.315 235.798C165.365 235.796 165.414 235.779 165.455 235.749ZM182.695 207.49L188.726 170.149C188.735 170.099 188.757 170.052 188.792 170.015C188.826 169.977 188.871 169.951 188.92 169.94C188.969 169.928 189.021 169.931 189.068 169.949C189.115 169.967 189.157 169.998 189.186 170.04L204.731 191.744C204.751 191.771 204.765 191.802 204.772 191.835C204.78 191.868 204.781 191.902 204.776 191.935C204.77 191.969 204.759 192.001 204.741 192.029C204.723 192.058 204.7 192.083 204.673 192.103L183.097 207.74C183.056 207.77 183.007 207.786 182.956 207.788C182.906 207.79 182.856 207.777 182.813 207.75C182.77 207.723 182.736 207.684 182.715 207.638C182.694 207.592 182.687 207.54 182.695 207.49Z" stroke="#190000" stroke-width="0.5" stroke-linecap="round" stroke-linejoin="round"/>
<path d="M215.687 197.18L214.328 195.282" stroke="#D89D35" stroke-width="0.5" stroke-linecap="round" stroke-linejoin="round"/>
<path d="M211.58 200.157L210.221 198.259" stroke="#D89D35" stroke-width="0.5" stroke-linecap="round" stroke-linejoin="round"/>
<path d="M199.255 209.089L197.896 207.191" stroke="#D89D35" stroke-width="0.5" stroke-linecap="round" stroke-linejoin="round"/>
<path d="M195.147 212.066L193.788 210.168" stroke="#D89D35" stroke-width="0.5" stroke-linecap="round" stroke-linejoin="round"/>
<path d="M207.472 203.134L206.112 201.237" stroke="#D89D35" stroke-width="0.5" stroke-linecap="round" stroke-linejoin="round"/>
<path d="M203.364 206.111L202.004 204.214" stroke="#D89D35" stroke-width="0.5" stroke-linecap="round" stroke-linejoin="round"/>
<path d="M186.931 218.021L185.571 216.123" stroke="#D89D35" stroke-width="0.5" stroke-linecap="round" stroke-linejoin="round"/>
<path d="M178.715 223.975L177.355 222.077" stroke="#D89D35" stroke-width="0.5" stroke-linecap="round" stroke-linejoin="round"/>
<path d="M191.039 215.043L189.68 213.146" stroke="#D89D35" stroke-width="0.5" stroke-linecap="round" stroke-linejoin="round"/>
<path d="M182.823 220.998L181.464 219.1" stroke="#D89D35" stroke-width="0.5" stroke-linecap="round" stroke-linejoin="round"/>
<path d="M174.607 226.952L173.248 225.055" stroke="#D89D35" stroke-width="0.5" stroke-linecap="round" stroke-linejoin="round"/>
<path d="M170.499 229.93L169.14 228.032" stroke="#D89D35" stroke-width="0.5" stroke-linecap="round" stroke-linejoin="round"/>
<path d="M184.263 144.715L182.376 146.083" stroke="#D89D35" stroke-width="0.5" stroke-linecap="round" stroke-linejoin="round"/>
<path d="M187.222 148.848L185.335 150.215" stroke="#D89D35" stroke-width="0.5" stroke-linecap="round" stroke-linejoin="round"/>
<path d="M196.101 161.245L194.215 162.612" stroke="#D89D35" stroke-width="0.5" stroke-linecap="round" stroke-linejoin="round"/>
<path d="M199.061 165.378L197.174 166.745" stroke="#D89D35" stroke-width="0.5" stroke-linecap="round" stroke-linejoin="round"/>
<path d="M190.182 152.98L188.295 154.347" stroke="#D89D35" stroke-width="0.5" stroke-linecap="round" stroke-linejoin="round"/>
<path d="M193.142 157.113L191.255 158.48" stroke="#D89D35" stroke-width="0.5" stroke-linecap="round" stroke-linejoin="round"/>
<path d="M204.981 173.643L203.094 175.01" stroke="#D89D35" stroke-width="0.5" stroke-linecap="round" stroke-linejoin="round"/>
<path d="M210.9 181.907L209.014 183.275" stroke="#D89D35" stroke-width="0.5" stroke-linecap="round" stroke-linejoin="round"/>
<path d="M202.02 169.51L200.134 170.877" stroke="#D89D35" stroke-width="0.5" stroke-linecap="round" stroke-linejoin="round"/>
<path d="M207.94 177.775L206.054 179.142" stroke="#D89D35" stroke-width="0.5" stroke-linecap="round" stroke-linejoin="round"/>
<path d="M213.86 186.04L211.973 187.407" stroke="#D89D35" stroke-width="0.5" stroke-linecap="round" stroke-linejoin="round"/>
<path d="M216.819 190.172L214.933 191.539" stroke="#D89D35" stroke-width="0.5" stroke-linecap="round" stroke-linejoin="round"/>
<path d="M178.802 214.01C178.024 213.598 177.374 212.98 176.922 212.222C176.471 211.463 176.235 210.595 176.242 209.711" stroke="#D89D35" stroke-width="0.5" stroke-linecap="round" stroke-linejoin="round"/>
<path d="M259.515 187.274C271.731 187.274 281.635 177.312 281.635 165.023C281.635 152.734 271.731 142.772 259.515 142.772C247.298 142.772 237.395 152.734 237.395 165.023C237.395 177.312 247.298 187.274 259.515 187.274Z" fill="#6F4EB9" stroke="#190000" stroke-width="0.5" stroke-linecap="round" stroke-linejoin="round"/>
<path d="M259.515 185.97C271.015 185.97 280.338 176.592 280.338 165.023C280.338 153.455 271.015 144.077 259.515 144.077C248.015 144.077 238.692 153.455 238.692 165.023C238.692 176.592 248.015 185.97 259.515 185.97Z" fill="#9879C9"/>
<path d="M259.515 183.63C269.73 183.63 278.011 175.299 278.011 165.023C278.011 154.747 269.73 146.417 259.515 146.417C249.299 146.417 241.018 154.747 241.018 165.023C241.018 175.299 249.299 183.63 259.515 183.63Z" fill="#3B8BE2"/>
<mask id="mask4_439_705" style="mask-type:luminance" maskUnits="userSpaceOnUse" x="241" y="146" width="38" height="38">
<path d="M259.515 183.63C269.73 183.63 278.011 175.299 278.011 165.023C278.011 154.747 269.73 146.417 259.515 146.417C249.299 146.417 241.018 154.747 241.018 165.023C241.018 175.299 249.299 183.63 259.515 183.63Z" fill="white"/>
</mask>
<g mask="url(#mask4_439_705)">
<path d="M257.189 182.462C267.404 182.462 275.685 174.131 275.685 163.855C275.685 153.579 267.404 145.249 257.189 145.249C246.973 145.249 238.692 153.579 238.692 163.855C238.692 174.131 246.973 182.462 257.189 182.462Z" fill="#399FE8"/>
</g>
<path d="M259.515 183.63C269.73 183.63 278.011 175.299 278.011 165.023C278.011 154.747 269.73 146.417 259.515 146.417C249.299 146.417 241.018 154.747 241.018 165.023C241.018 175.299 249.299 183.63 259.515 183.63Z" stroke="#190000" stroke-width="0.5" stroke-linecap="round" stroke-linejoin="round"/>
<path d="M252.648 164.369L252.759 163.661L259.709 164.419L259.49 165.81L252.648 164.369Z" fill="white" stroke="#190000" stroke-width="0.5" stroke-linecap="round" stroke-linejoin="round"/>
<path d="M268.215 158.529L268.634 159.108L259.701 166.063L258.878 164.923L268.215 158.529Z" fill="white" stroke="#190000" stroke-width="0.5" stroke-linecap="round" stroke-linejoin="round"/>
<path d="M260.108 148.823H258.923V151.315H260.108V148.823Z" fill="white" stroke="#190000" stroke-width="0.5" stroke-linecap="round" stroke-linejoin="round"/>
<path d="M260.108 178.731H258.923V181.223H260.108V178.731Z" fill="white" stroke="#190000" stroke-width="0.5" stroke-linecap="round" stroke-linejoin="round"/>
<path d="M275.619 164.427H273.142V165.619H275.619V164.427Z" fill="white" stroke="#190000" stroke-width="0.5" stroke-linecap="round" stroke-linejoin="round"/>
<path d="M245.888 164.427H243.411V165.619H245.888V164.427Z" fill="white" stroke="#190000" stroke-width="0.5" stroke-linecap="round" stroke-linejoin="round"/>
<path d="M259.515 167.751C261.013 167.751 262.226 166.529 262.226 165.023C262.226 163.517 261.013 162.296 259.515 162.296C258.018 162.296 256.804 163.517 256.804 165.023C256.804 166.529 258.018 167.751 259.515 167.751Z" fill="#D6DCF2"/>
<mask id="mask5_439_705" style="mask-type:luminance" maskUnits="userSpaceOnUse" x="256" y="162" width="7" height="6">
<path d="M259.515 167.751C261.013 167.751 262.226 166.529 262.226 165.023C262.226 163.517 261.013 162.296 259.515 162.296C258.018 162.296 256.804 163.517 256.804 165.023C256.804 166.529 258.018 167.751 259.515 167.751Z" fill="white"/>
</mask>
<g mask="url(#mask5_439_705)">
<path d="M258.435 168.213C259.933 168.213 261.147 166.992 261.147 165.486C261.147 163.979 259.933 162.758 258.435 162.758C256.938 162.758 255.724 163.979 255.724 165.486C255.724 166.992 256.938 168.213 258.435 168.213Z" fill="white" stroke="#190000" stroke-width="0.5" stroke-linecap="round" stroke-linejoin="round"/>
</g>
<path d="M259.515 167.751C261.013 167.751 262.226 166.529 262.226 165.023C262.226 163.517 261.013 162.296 259.515 162.296C258.018 162.296 256.804 163.517 256.804 165.023C256.804 166.529 258.018 167.751 259.515 167.751Z" stroke="#190000" stroke-width="0.5" stroke-linecap="round" stroke-linejoin="round"/>
<path d="M251.81 154.62C251.45 155.379 251.01 156.098 250.497 156.764" stroke="#2976DF" stroke-width="0.5" stroke-linecap="round" stroke-linejoin="round"/>
<path d="M271.949 170.773C271.969 171.451 271.854 172.125 271.61 172.757C271.367 173.389 271 173.965 270.532 174.453" stroke="#2976DF" stroke-width="0.5" stroke-linecap="round" stroke-linejoin="round"/>
<path d="M111.539 235.875C111.539 235.875 114.194 229.444 119.934 224.488L130.521 219.64L126.053 208.797L110.794 215.708L104.582 231.324L106.824 239.059L111.539 235.875Z" fill="#FACCC4"/>
<mask id="mask6_439_705" style="mask-type:luminance" maskUnits="userSpaceOnUse" x="104" y="208" width="27" height="32">
<path d="M111.539 235.875C111.539 235.875 114.194 229.444 119.934 224.488L130.521 219.64L126.053 208.797L110.794 215.708L104.582 231.324L106.824 239.059L111.539 235.875Z" fill="white"/>
</mask>
<g mask="url(#mask6_439_705)">
<path d="M118.825 211.648C115.089 211.324 118.825 223.254 118.078 227.079C117.331 230.905 126.983 222.995 126.983 222.995L119.884 213.918" fill="#ED707B"/>
</g>
<path d="M111.539 235.875C111.539 235.875 114.194 229.444 119.934 224.488L130.521 219.64L126.053 208.797L110.794 215.708L104.582 231.324L106.824 239.059L111.539 235.875Z" stroke="#190000" stroke-width="0.5" stroke-linecap="round" stroke-linejoin="round"/>
<path d="M106.762 215.178L101.924 251L101.997 250.988C104.921 250.494 107.461 248.566 108.862 245.777L115.317 230.945C115.317 230.945 110.844 230.652 108.747 235.61L113.647 213.917L106.762 215.178Z" fill="#4B4D5C" stroke="#190000" stroke-width="0.5" stroke-linecap="round" stroke-linejoin="round"/>
<path d="M117.223 211.851C117.223 211.851 120.471 224.832 125.496 226.325L171.708 197.228L204.132 128.574L181.326 122.039L156.022 183.79L117.223 211.851Z" fill="#B06759"/>
<mask id="mask7_439_705" style="mask-type:luminance" maskUnits="userSpaceOnUse" x="117" y="122" width="88" height="105">
<path d="M117.223 211.851C117.223 211.851 120.471 224.832 125.496 226.325L171.708 197.228L204.132 128.574L181.326 122.039L156.022 183.79L117.223 211.851Z" fill="white"/>
</mask>
<g mask="url(#mask7_439_705)">
<g opacity="0.16">
<path d="M114.007 126.256L107.924 127.543L131.061 238.252L137.143 236.966L114.007 126.256Z" stroke="#190000" stroke-width="0.5" stroke-linecap="round" stroke-linejoin="round"/>
<path d="M125.607 123.803L119.524 125.09L142.661 235.799L148.743 234.512L125.607 123.803Z" stroke="#190000" stroke-width="0.5" stroke-linecap="round" stroke-linejoin="round"/>
<path d="M137.207 121.35L131.125 122.636L154.261 233.346L160.344 232.059L137.207 121.35Z" stroke="#190000" stroke-width="0.5" stroke-linecap="round" stroke-linejoin="round"/>
<path d="M148.807 118.897L142.725 120.184L165.861 230.893L171.944 229.606L148.807 118.897Z" stroke="#190000" stroke-width="0.5" stroke-linecap="round" stroke-linejoin="round"/>
<path d="M160.407 116.444L154.325 117.73L177.461 228.44L183.544 227.153L160.407 116.444Z" stroke="#190000" stroke-width="0.5" stroke-linecap="round" stroke-linejoin="round"/>
<path d="M172.001 113.996L165.918 115.282L189.052 225.99L195.134 224.704L172.001 113.996Z" stroke="#190000" stroke-width="0.5" stroke-linecap="round" stroke-linejoin="round"/>
<path d="M183.607 111.538L177.525 112.824L200.661 223.534L206.744 222.247L183.607 111.538Z" stroke="#190000" stroke-width="0.5" stroke-linecap="round" stroke-linejoin="round"/>
<path d="M195.207 109.085L189.125 110.371L212.262 221.08L218.344 219.794L195.207 109.085Z" stroke="#190000" stroke-width="0.5" stroke-linecap="round" stroke-linejoin="round"/>
</g>
<g opacity="0.16">
<path d="M207.507 124.833L206.229 118.714L96.1722 141.988L97.4509 148.107L207.507 124.833Z" stroke="#190000" stroke-width="0.5" stroke-linecap="round" stroke-linejoin="round"/>
<path d="M209.946 136.502L208.667 130.384L98.6112 153.657L99.8899 159.776L209.946 136.502Z" stroke="#190000" stroke-width="0.5" stroke-linecap="round" stroke-linejoin="round"/>
<path d="M212.385 148.171L211.106 142.052L101.05 165.326L102.328 171.445L212.385 148.171Z" stroke="#190000" stroke-width="0.5" stroke-linecap="round" stroke-linejoin="round"/>
<path d="M214.823 159.839L213.544 153.721L103.488 176.995L104.767 183.113L214.823 159.839Z" stroke="#190000" stroke-width="0.5" stroke-linecap="round" stroke-linejoin="round"/>
<path d="M217.262 171.508L215.983 165.39L105.927 188.663L107.206 194.782L217.262 171.508Z" stroke="#190000" stroke-width="0.5" stroke-linecap="round" stroke-linejoin="round"/>
<path d="M219.701 183.177L218.422 177.059L108.366 200.333L109.644 206.451L219.701 183.177Z" stroke="#190000" stroke-width="0.5" stroke-linecap="round" stroke-linejoin="round"/>
<path d="M222.14 194.846L220.861 188.728L110.805 212.001L112.083 218.12L222.14 194.846Z" stroke="#190000" stroke-width="0.5" stroke-linecap="round" stroke-linejoin="round"/>
<path d="M224.578 206.515L223.299 200.396L113.243 223.67L114.522 229.789L224.578 206.515Z" stroke="#190000" stroke-width="0.5" stroke-linecap="round" stroke-linejoin="round"/>
</g>
<path d="M150.255 177.175C167.45 172.481 176.822 142.866 184.328 137.234C191.833 131.601 165.059 144.346 165.059 144.346L155.067 153.903" fill="#914D44"/>
</g>
<path d="M117.223 211.851C117.223 211.851 120.471 224.832 125.496 226.325L171.708 197.228L204.132 128.574L181.326 122.039L156.022 183.79L117.223 211.851Z" stroke="#190000" stroke-width="0.5" stroke-linecap="round" stroke-linejoin="round"/>
<path d="M127.575 105.448L122.989 109.288C122.989 109.288 122.869 112.168 122.572 113.502C122.274 114.835 117.21 116.169 116.198 116.916C115.185 117.662 115.304 115.209 116.198 114.515C116.198 114.515 114.589 114.142 115.066 113.129C115.066 113.129 114.172 111.988 114.53 111.252C114.53 111.252 113.468 110.302 114.446 109.342C115.423 108.381 114.947 109.021 114.947 109.021L115.483 107.669L123.703 100.546L127.575 105.448Z" fill="#FACCC4"/>
<mask id="mask8_439_705" style="mask-type:luminance" maskUnits="userSpaceOnUse" x="114" y="100" width="14" height="18">
<path d="M127.575 105.448L122.989 109.288C122.989 109.288 122.869 112.168 122.572 113.502C122.274 114.835 117.21 116.169 116.198 116.916C115.185 117.662 115.304 115.209 116.198 114.515C116.198 114.515 114.589 114.142 115.066 113.129C115.066 113.129 114.172 111.988 114.53 111.252C114.53 111.252 113.468 110.302 114.446 109.342C115.423 108.381 114.947 109.021 114.947 109.021L115.483 107.669L123.703 100.546L127.575 105.448Z" fill="white"/>
</mask>
<g mask="url(#mask8_439_705)">
<path d="M122.97 100.546C115.619 101.898 125.749 110.053 124.225 116.636C122.701 123.219 128.259 102.479 128.259 102.479L123.703 100.546" fill="#ED707B"/>
</g>
<path d="M127.575 105.448L122.989 109.288C122.989 109.288 122.869 112.168 122.572 113.502C122.274 114.835 117.21 116.169 116.198 116.916C115.185 117.662 115.304 115.209 116.198 114.515C116.198 114.515 114.589 114.142 115.066 113.129C115.066 113.129 114.172 111.988 114.53 111.252C114.53 111.252 113.468 110.302 114.446 109.342C115.423 108.381 114.947 109.021 114.947 109.021L115.483 107.669L123.703 100.546L127.575 105.448Z" stroke="#190000" stroke-width="0.5" stroke-linecap="round" stroke-linejoin="round"/>
<path d="M77.3073 202.709C77.3073 202.709 80.4802 196.566 86.6046 192.198L97.5469 188.415L93.9881 177.175L78.2231 182.551L70.7524 197.49L72.3505 205.415L77.3073 202.709Z" fill="#FACCC4"/>
<mask id="mask9_439_705" style="mask-type:luminance" maskUnits="userSpaceOnUse" x="70" y="177" width="28" height="29">
<path d="M77.3073 202.709C77.3073 202.709 80.4802 196.566 86.6046 192.198L97.5469 188.415L93.9881 177.175L78.2231 182.551L70.7524 197.49L72.3505 205.415L77.3073 202.709Z" fill="white"/>
</mask>
<g mask="url(#mask9_439_705)">
<path d="M89.0575 178.452C85.2587 177.415 85.3833 191.744 84.5114 195.828C83.6395 199.913 90.1162 192.911 90.1162 192.911L90.8635 182.991" fill="#ED707B"/>
</g>
<path d="M77.3073 202.709C77.3073 202.709 80.4802 196.566 86.6046 192.198L97.5469 188.415L93.9881 177.175L78.2231 182.551L70.7524 197.49L72.3505 205.415L77.3073 202.709Z" stroke="#190000" stroke-width="0.5" stroke-linecap="round" stroke-linejoin="round"/>
<path d="M74.251 181.625L66.4888 216.823L66.5626 216.818C69.5153 216.615 72.2033 214.946 73.8279 212.307L81.4757 198.173C81.4757 198.173 77.045 197.439 74.5489 202.169L81.2118 181.049L74.251 181.625Z" fill="#4B4D5C" stroke="#190000" stroke-width="0.5" stroke-linecap="round" stroke-linejoin="round"/>
<path d="M197.862 125.611L172.837 114.558L133.97 156.028L87.3554 178.118C87.3554 178.118 84.4881 192.535 89.5136 198.557L141.507 176.327L182.675 139.279" fill="#B06759"/>
<mask id="mask10_439_705" style="mask-type:luminance" maskUnits="userSpaceOnUse" x="86" y="114" width="112" height="85">
<path d="M197.862 125.611L172.837 114.558L133.97 156.028L87.3554 178.118C87.3554 178.118 84.4881 192.535 89.5136 198.557L141.507 176.327L182.675 139.279" fill="white"/>
</mask>
<g mask="url(#mask10_439_705)">
<path d="M196.245 129.418C176.369 135.318 173.911 110.524 147.02 142.104C127.759 164.724 161.423 106.596 161.423 106.596L173.629 102.399L179.608 106.336" fill="#914D44"/>
<g opacity="0.16">
<path d="M122.426 80.7923L115.492 78.5798L75.6954 204.792L82.6296 207.005L122.426 80.7923Z" stroke="#190000" stroke-width="0.5" stroke-linecap="round" stroke-linejoin="round"/>
<path d="M135.651 85.0121L128.717 82.7996L88.92 209.012L95.8542 211.225L135.651 85.0121Z" stroke="#190000" stroke-width="0.5" stroke-linecap="round" stroke-linejoin="round"/>
<path d="M148.875 89.2313L141.941 87.0188L102.144 213.231L109.078 215.444L148.875 89.2313Z" stroke="#190000" stroke-width="0.5" stroke-linecap="round" stroke-linejoin="round"/>
<path d="M162.1 93.451L155.166 91.2385L115.369 217.451L122.303 219.664L162.1 93.451Z" stroke="#190000" stroke-width="0.5" stroke-linecap="round" stroke-linejoin="round"/>
<path d="M175.324 97.6703L168.39 95.4578L128.593 221.67L135.528 223.883L175.324 97.6703Z" stroke="#190000" stroke-width="0.5" stroke-linecap="round" stroke-linejoin="round"/>
<path d="M188.549 101.89L181.614 99.6772L141.817 225.89L148.752 228.102L188.549 101.89Z" stroke="#190000" stroke-width="0.5" stroke-linecap="round" stroke-linejoin="round"/>
<path d="M201.773 106.109L194.839 103.897L155.042 230.11L161.976 232.322L201.773 106.109Z" stroke="#190000" stroke-width="0.5" stroke-linecap="round" stroke-linejoin="round"/>
<path d="M214.998 110.329L208.063 108.116L168.267 234.329L175.201 236.541L214.998 110.329Z" stroke="#190000" stroke-width="0.5" stroke-linecap="round" stroke-linejoin="round"/>
</g>
<g opacity="0.16">
<path d="M218.517 133.501L220.716 126.526L95.2479 86.4928L93.0485 93.4681L218.517 133.501Z" stroke="#190000" stroke-width="0.5" stroke-linecap="round" stroke-linejoin="round"/>
<path d="M214.323 146.804L216.522 139.829L91.0536 99.7957L88.8541 106.771L214.323 146.804Z" stroke="#190000" stroke-width="0.5" stroke-linecap="round" stroke-linejoin="round"/>
<path d="M210.128 160.107L212.327 153.132L86.8587 113.099L84.6593 120.074L210.128 160.107Z" stroke="#190000" stroke-width="0.5" stroke-linecap="round" stroke-linejoin="round"/>
<path d="M205.933 173.41L208.132 166.434L82.6639 126.401L80.4645 133.377L205.933 173.41Z" stroke="#190000" stroke-width="0.5" stroke-linecap="round" stroke-linejoin="round"/>
<path d="M201.739 186.713L203.938 179.738L78.4696 139.705L76.2701 146.68L201.739 186.713Z" stroke="#190000" stroke-width="0.5" stroke-linecap="round" stroke-linejoin="round"/>
<path d="M197.544 200.016L199.744 193.041L74.2753 153.008L72.0758 159.983L197.544 200.016Z" stroke="#190000" stroke-width="0.5" stroke-linecap="round" stroke-linejoin="round"/>
<path d="M193.349 213.319L195.549 206.343L70.0804 166.31L67.881 173.286L193.349 213.319Z" stroke="#190000" stroke-width="0.5" stroke-linecap="round" stroke-linejoin="round"/>
<path d="M189.155 226.622L191.354 219.646L65.8856 179.614L63.6862 186.589L189.155 226.622Z" stroke="#190000" stroke-width="0.5" stroke-linecap="round" stroke-linejoin="round"/>
</g>
</g>
<path d="M197.862 125.611L172.837 114.558L133.97 156.028L87.3554 178.118C87.3554 178.118 84.4881 192.535 89.5136 198.557L141.507 176.327L182.675 139.279" stroke="#190000" stroke-width="0.5" stroke-linecap="round" stroke-linejoin="round"/>
<path d="M265.573 70.1938L271.017 66.1722C271.017 66.1722 271.158 63.1561 271.512 61.7597C271.865 60.3634 277.875 58.967 279.077 58.185C280.279 57.4031 280.138 59.9724 279.077 60.6985C279.077 60.6985 280.986 61.0895 280.421 62.1507C280.421 62.1507 281.481 63.3447 281.057 64.1162C281.057 64.1162 282.318 65.111 281.157 66.1164C279.997 67.1218 280.562 66.4515 280.562 66.4515L279.926 67.868L270.169 75.327L265.573 70.1938Z" fill="#FACCC4"/>
<mask id="mask11_439_705" style="mask-type:luminance" maskUnits="userSpaceOnUse" x="265" y="58" width="17" height="18">
<path d="M265.573 70.1938L271.017 66.1722C271.017 66.1722 271.158 63.1561 271.512 61.7597C271.865 60.3634 277.875 58.967 279.077 58.185C280.279 57.4031 280.138 59.9724 279.077 60.6985C279.077 60.6985 280.986 61.0895 280.421 62.1507C280.421 62.1507 281.481 63.3447 281.057 64.1162C281.057 64.1162 282.318 65.111 281.157 66.1164C279.997 67.1218 280.562 66.4515 280.562 66.4515L279.926 67.868L270.169 75.327L265.573 70.1938Z" fill="white"/>
</mask>
<g mask="url(#mask11_439_705)">
<path d="M266.888 68.4012C268.488 68.0406 274.988 71.6239 275.785 71.9546C276.582 72.2853 273.086 74.2391 273.086 74.2391L267.02 72.4957" fill="#ED707B"/>
</g>
<path d="M265.573 70.1938L271.017 66.1722C271.017 66.1722 271.158 63.1561 271.512 61.7597C271.865 60.3634 277.875 58.967 279.077 58.185C280.279 57.4031 280.138 59.9724 279.077 60.6985C279.077 60.6985 280.986 61.0895 280.421 62.1507C280.421 62.1507 281.481 63.3447 281.057 64.1162C281.057 64.1162 282.318 65.111 281.157 66.1164C279.997 67.1218 280.562 66.4515 280.562 66.4515L279.926 67.868L270.169 75.327L265.573 70.1938Z" stroke="#190000" stroke-width="0.5" stroke-linecap="round" stroke-linejoin="round"/>
<path d="M267.709 67.8682C267.709 67.8682 273.523 76.1717 273.611 76.929L255.892 91.1061C252.435 93.5571 248.521 95.2805 244.385 96.173L206.993 101.106L218.365 81.0345L246.498 81.6326L267.709 67.8682Z" fill="#409159"/>
<mask id="mask12_439_705" style="mask-type:luminance" maskUnits="userSpaceOnUse" x="206" y="67" width="68" height="35">
<path d="M267.709 67.8682C267.709 67.8682 273.523 76.1717 273.611 76.929L255.892 91.1061C252.435 93.5571 248.521 95.2805 244.385 96.173L206.993 101.106L218.365 81.0345L246.498 81.6326L267.709 67.8682Z" fill="white"/>
</mask>
<g mask="url(#mask12_439_705)">
<path d="M217.376 87.0029C219.618 101.644 238.812 96.7026 247.03 95.4737C255.247 94.2448 223.037 107.475 223.037 107.475L205.908 106.296L206.992 101.106L214.441 87.7406" fill="#357C49"/>
<path d="M250.929 100.645C254.643 100.645 257.653 98.5924 257.653 96.0605C257.653 93.5286 254.643 91.4761 250.929 91.4761C247.216 91.4761 244.206 93.5286 244.206 96.0605C244.206 98.5924 247.216 100.645 250.929 100.645Z" fill="#357C49"/>
</g>
<path d="M267.709 67.8682C267.709 67.8682 273.523 76.1717 273.611 76.929L255.892 91.1061C252.435 93.5571 248.521 95.2805 244.385 96.173L206.993 101.106L218.365 81.0345L246.498 81.6326L267.709 67.8682Z" stroke="#190000" stroke-width="0.5" stroke-linecap="round" stroke-linejoin="round"/>
<path d="M219.364 81.2056L194.959 73.2904C194.959 73.2904 182.251 72.3943 177.689 72.4292C173.126 72.4642 175.632 79.2459 175.632 79.2459C175.632 79.2459 183.397 101.846 170.448 115.028C170.448 115.028 185.704 134.539 202.716 132.17C204.704 131.894 218.161 106.698 219.936 90.0512" fill="#409159"/>
<mask id="mask13_439_705" style="mask-type:luminance" maskUnits="userSpaceOnUse" x="170" y="72" width="50" height="61">
<path d="M219.364 81.2056L194.959 73.2904C194.959 73.2904 182.251 72.3943 177.689 72.4292C173.126 72.4642 175.632 79.2459 175.632 79.2459C175.632 79.2459 183.397 101.846 170.448 115.028C170.448 115.028 185.704 134.539 202.716 132.17C204.704 131.894 218.161 106.698 219.936 90.0512" fill="white"/>
</mask>
<g mask="url(#mask13_439_705)">
<path d="M184.563 90.3266C177.937 94.6271 176.78 111.886 183.777 122.774C208.095 160.614 161.345 127.014 160.486 124.78C160.486 124.78 158.531 107.394 158.778 106.412C159.025 105.429 169.184 87.9377 169.184 87.9377L177.585 87.3481L184.563 90.3266Z" fill="#357C49"/>
<path d="M206.382 82.1892C209.312 123.517 178.201 137.13 178.201 137.13" stroke="#75AA3C" stroke-width="0.5" stroke-linecap="round" stroke-linejoin="round"/>
</g>
<path d="M219.364 81.2056L194.959 73.2904C194.959 73.2904 182.251 72.3943 177.689 72.4292C173.126 72.4642 175.632 79.2459 175.632 79.2459C175.632 79.2459 183.397 101.846 170.448 115.028C170.448 115.028 185.704 134.539 202.716 132.17C204.704 131.894 218.161 106.698 219.936 90.0512" stroke="#190000" stroke-width="0.5" stroke-linecap="round" stroke-linejoin="round"/>
<path d="M200.552 61.8708L198.595 67.1929L196.194 73.1443L206.783 83.7958L211.519 67.577L200.552 61.8708Z" fill="#FACCC4"/>
<mask id="mask14_439_705" style="mask-type:luminance" maskUnits="userSpaceOnUse" x="196" y="61" width="16" height="23">
<path d="M200.552 61.8708L198.595 67.1929L196.194 73.1443L206.783 83.7958L211.519 67.577L200.552 61.8708Z" fill="white"/>
</mask>
<g mask="url(#mask14_439_705)">
<path d="M207.779 80.4182C208.837 73.0654 204.991 70.7456 204.991 70.7456C204.991 70.7456 213.429 69.4565 213.773 69.4565C214.117 69.4565 206.419 89.8732 207.779 80.4182Z" fill="#ED707B"/>
</g>
<path d="M200.552 61.8708L198.595 67.1929L196.194 73.1443L206.783 83.7958L211.519 67.577L200.552 61.8708Z" stroke="#190000" stroke-width="0.5" stroke-linecap="round" stroke-linejoin="round"/>
<path d="M204.991 70.7457C208.953 71.9029 217.212 73.3902 216.779 65.5119C216.211 55.1671 210.501 49.4536 210.501 49.4536L196.77 59.9686L201.258 65.4588" fill="#FACCC4"/>
<path d="M204.991 70.7457C208.953 71.9029 217.212 73.3902 216.779 65.5119C216.211 55.1671 210.501 49.4536 210.501 49.4536L196.77 59.9686L201.258 65.4588" stroke="#190000" stroke-width="0.5" stroke-linecap="round" stroke-linejoin="round"/>
<path d="M201.257 65.4589C206.632 65.0344 204.348 55.052 204.348 55.052C204.348 55.052 215.742 52.3568 217.352 47.3373C219.187 41.6224 212.613 36.8966 200.643 49.0841C200.643 49.0841 198.433 45.8317 194.723 51.8601C191.466 57.1504 192.132 65.3761 199.028 69.4568L201.257 65.4589Z" fill="#4B4D5C" stroke="#190000" stroke-width="0.5" stroke-linecap="round" stroke-linejoin="round"/>
<path d="M202.251 67.3428C201.997 67.3091 201.744 67.2615 201.495 67.2001C198.958 66.5759 197.24 64.6777 197.658 62.9603C198.075 61.2429 200.47 60.3567 203.007 60.9809C204.19 61.272 205.195 61.8399 205.889 62.5374" fill="#FACCC4"/>
<path d="M202.251 67.3428C201.997 67.3091 201.744 67.2615 201.495 67.2001C198.958 66.5759 197.24 64.6777 197.658 62.9603C198.075 61.2429 200.47 60.3567 203.007 60.9809C204.19 61.272 205.195 61.8399 205.889 62.5374" stroke="#190000" stroke-width="0.5" stroke-linecap="round" stroke-linejoin="round"/>
<path d="M176.955 72.4292L152.32 81.064C150.404 81.7246 148.582 82.6328 146.899 83.7657C146.899 83.7657 121.847 98.5526 120.403 101.605C118.959 104.657 127.575 110.524 127.575 110.524L155.251 95.7401L186.892 90.3037" fill="#409159"/>
<mask id="mask15_439_705" style="mask-type:luminance" maskUnits="userSpaceOnUse" x="120" y="72" width="67" height="39">
<path d="M176.955 72.4292L152.32 81.064C150.404 81.7246 148.582 82.6328 146.899 83.7657C146.899 83.7657 121.847 98.5526 120.403 101.605C118.959 104.657 127.575 110.524 127.575 110.524L155.251 95.7401L186.892 90.3037" fill="white"/>
</mask>
<g mask="url(#mask15_439_705)">
<path d="M152.223 84.6861C155.715 82.6581 157.526 79.2382 156.269 77.0476C155.012 74.857 151.162 74.7253 147.67 76.7533C144.178 78.7813 142.366 82.2011 143.624 84.3917C144.881 86.5823 148.731 86.7141 152.223 84.6861Z" fill="#357C49"/>
</g>
<path d="M176.955 72.4292L152.32 81.064C150.404 81.7246 148.582 82.6328 146.899 83.7657C146.899 83.7657 121.847 98.5526 120.403 101.605C118.959 104.657 127.575 110.524 127.575 110.524L155.251 95.7401L186.892 90.3037" stroke="#190000" stroke-width="0.5" stroke-linecap="round" stroke-linejoin="round"/>
<path d="M211.773 56.8844C211.981 56.8183 212.207 56.8382 212.401 56.9398C212.595 57.0413 212.741 57.2162 212.807 57.426L213.225 58.7616C213.258 58.8654 213.27 58.9747 213.26 59.0832C213.251 59.1916 213.22 59.2972 213.17 59.3937C213.12 59.4903 213.052 59.576 212.969 59.646C212.886 59.716 212.79 59.7688 212.687 59.8016C212.584 59.8343 212.475 59.8462 212.367 59.8367C212.259 59.8272 212.154 59.7964 212.058 59.7461C211.962 59.6958 211.877 59.627 211.808 59.5436C211.738 59.4602 211.685 59.3638 211.653 59.26L211.235 57.9243C211.202 57.8205 211.19 57.7112 211.2 57.6028C211.209 57.4943 211.24 57.3888 211.29 57.2922C211.34 57.1956 211.408 57.1099 211.491 57.0399C211.574 56.9699 211.67 56.9171 211.773 56.8844Z" fill="#190000"/>
<path d="M212.201 54.2404C209.793 54.8871 209.574 56.0448 211.106 55.7393C212.637 55.4339 213.774 53.8179 212.201 54.2404Z" fill="#190000"/>
<path d="M214.374 57.7468C217.852 58.695 217.742 62.099 215.507 62.0071L214.374 57.7468Z" fill="#FACCC4"/>
<path d="M214.374 57.7468C217.852 58.695 217.742 62.099 215.507 62.0071" stroke="#190000" stroke-width="0.5" stroke-linecap="round" stroke-linejoin="round"/>
<path opacity="0.33" d="M208.164 64.5337C209.626 64.5337 210.811 63.3415 210.811 61.8709C210.811 60.4002 209.626 59.208 208.164 59.208C206.702 59.208 205.517 60.4002 205.517 61.8709C205.517 63.3415 206.702 64.5337 208.164 64.5337Z" fill="#ED707B"/>
<path d="M212.063 63.1938C212.403 63.5732 212.859 63.8274 213.359 63.9162" stroke="#993443" stroke-width="0.5" stroke-linecap="round" stroke-linejoin="round"/>
<path d="M201.885 63.1145C201.813 63.0215 201.721 62.946 201.615 62.8933C201.51 62.8407 201.395 62.8122 201.277 62.81C201.16 62.8077 201.043 62.8318 200.936 62.8804C200.829 62.929 200.734 63.001 200.658 63.0911C200.582 63.1812 200.527 63.2872 200.497 63.4014C200.466 63.5156 200.462 63.6351 200.483 63.7513C200.504 63.8676 200.551 63.9776 200.62 64.0735C200.688 64.1693 200.777 64.2486 200.88 64.3056" stroke="#190000" stroke-width="0.5" stroke-linecap="round" stroke-linejoin="round"/>
<path d="M208.707 88.742C208.707 88.742 208.384 84.0498 206.783 83.7958L209.663 74.9751L213.408 79.2735L208.707 88.742Z" fill="white" stroke="#190000" stroke-width="0.5" stroke-linecap="round" stroke-linejoin="round"/>
<path d="M125.383 96.2717L119.601 101.141C119.601 101.141 123.986 110.032 127.575 110.524L132.037 108.14C132.037 108.14 124.038 100.961 125.383 96.2717Z" fill="white" stroke="#190000" stroke-width="0.5" stroke-linecap="round" stroke-linejoin="round"/>
<path d="M263.068 70.7035C266.867 72.4644 269.646 79.3543 269.889 81.8571L274.506 77.2897C274.506 77.2897 272.9 69.2564 267.568 67.8223L263.068 70.7035Z" fill="white" stroke="#190000" stroke-width="0.5" stroke-linecap="round" stroke-linejoin="round"/>
<path d="M180.045 113.828C185.728 114.172 187.999 108.16 187.999 108.16" stroke="#75AA3C" stroke-width="0.5" stroke-linecap="round" stroke-linejoin="round"/>
<path d="M205.272 83.7959C210.89 90.8954 198.518 103.851 212.175 102.799C228.006 101.579 219.449 111.997 219.449 111.997L226.159 118.85L230.82 112.898C229.117 100.454 223.411 97.358 211.519 100.214C203.996 102.02 210.89 90.2942 205.899 83.2305L205.272 83.7959Z" fill="#FBD164"/>
<mask id="mask16_439_705" style="mask-type:luminance" maskUnits="userSpaceOnUse" x="205" y="83" width="26" height="36">
<path d="M205.272 83.7959C210.89 90.8954 198.518 103.851 212.175 102.799C228.006 101.579 219.449 111.997 219.449 111.997L226.159 118.85L230.82 112.898C229.117 100.454 223.411 97.358 211.519 100.214C203.996 102.02 210.89 90.2942 205.899 83.2305L205.272 83.7959Z" fill="white"/>
</mask>
<g mask="url(#mask16_439_705)">
<path d="M216.114 106.526L228.144 98.3159L229.536 102.399L216.795 109.773L216.114 106.526Z" fill="white" stroke="#190000" stroke-width="0.5" stroke-linecap="round" stroke-linejoin="round"/>
</g>
<path d="M205.272 83.7959C210.89 90.8954 198.518 103.851 212.175 102.799C228.006 101.579 219.449 111.997 219.449 111.997L226.159 118.85L230.82 112.898C229.117 100.454 223.411 97.358 211.519 100.214C203.996 102.02 210.89 90.2942 205.899 83.2305L205.272 83.7959Z" stroke="#190000" stroke-width="0.5" stroke-linecap="round" stroke-linejoin="round"/>
<path d="M192.176 73.1032C192.176 73.1032 195.757 71.9428 197.002 71.1431L206.783 83.7959C206.783 83.7959 203.239 86.2171 202.821 88.3814L192.176 73.1032Z" fill="white" stroke="#190000" stroke-width="0.5" stroke-linecap="round" stroke-linejoin="round"/>
<path d="M134.519 155.938C135.17 156.842 135.725 157.813 136.172 158.834" stroke="#6D3417" stroke-width="0.5" stroke-linecap="round" stroke-linejoin="round"/>
<path d="M156.197 184.14C156.929 184.95 157.827 185.591 158.828 186.019C159.83 186.446 160.912 186.65 162 186.617" stroke="#6D3417" stroke-width="0.5" stroke-linecap="round" stroke-linejoin="round"/>
<path d="M166.34 128.433C167.748 129.029 168.985 130.006 170.438 130.478C171.456 130.797 172.537 130.859 173.585 130.659C174.632 130.459 175.615 130.002 176.446 129.329" stroke="#6D3417" stroke-width="0.5" stroke-linecap="round" stroke-linejoin="round"/>
<path d="M71.4033 207.162V207.643" stroke="#190000" stroke-width="0.5" stroke-linecap="round" stroke-linejoin="round"/>
<path d="M155.068 93.6589C154.84 94.1033 154.759 94.6093 154.838 95.1028" stroke="#75AA3C" stroke-width="0.5" stroke-linecap="round" stroke-linejoin="round"/>
<path d="M207.182 48.2702C209.098 48.3694 210.984 46.95 211.431 45.0725" stroke="#190000" stroke-width="0.5" stroke-linecap="round" stroke-linejoin="round"/>
<path d="M246.916 82.1248C246.752 83.3984 246.329 84.6246 245.674 85.727" stroke="#75AA3C" stroke-width="0.5" stroke-linecap="round" stroke-linejoin="round"/>
<path d="M155.78 83.5276L138.391 29.7242C138.374 29.6716 138.337 29.6281 138.288 29.603C138.239 29.5779 138.182 29.5734 138.13 29.5905L84.644 47.0822C84.605 47.095 84.5707 47.119 84.5454 47.1514C84.5201 47.1837 84.5048 47.2229 84.5016 47.2639C84.4984 47.305 84.5074 47.3461 84.5274 47.382C84.5474 47.4179 84.5775 47.4471 84.614 47.4658L155.489 83.7775C155.525 83.7962 155.566 83.8036 155.607 83.7988C155.648 83.7939 155.686 83.777 155.717 83.7503C155.748 83.7235 155.771 83.6881 155.782 83.6485C155.793 83.6089 155.792 83.5668 155.78 83.5276ZM138.376 63.1756L111.242 49.2741C111.206 49.2554 111.176 49.2263 111.156 49.1904C111.136 49.1544 111.127 49.1133 111.13 49.0723C111.133 49.0312 111.148 48.9921 111.174 48.9597C111.199 48.9274 111.233 48.9033 111.272 48.8906L131.749 42.1941C131.801 42.177 131.858 42.1815 131.907 42.2066C131.956 42.2317 131.993 42.2752 132.01 42.3277L138.667 62.9257C138.679 62.9649 138.68 63.0069 138.669 63.0466C138.658 63.0862 138.635 63.1216 138.604 63.1484C138.573 63.1751 138.535 63.192 138.494 63.1968C138.453 63.2017 138.412 63.1943 138.376 63.1756Z" fill="#409159"/>
<mask id="mask17_439_705" style="mask-type:luminance" maskUnits="userSpaceOnUse" x="84" y="29" width="72" height="55">
<path d="M155.78 83.5276L138.391 29.7242C138.374 29.6716 138.337 29.6281 138.288 29.603C138.239 29.5779 138.182 29.5734 138.13 29.5905L84.644 47.0822C84.605 47.095 84.5707 47.119 84.5454 47.1514C84.5201 47.1837 84.5048 47.2229 84.5016 47.2639C84.4984 47.305 84.5074 47.3461 84.5274 47.382C84.5474 47.4179 84.5775 47.4471 84.614 47.4658L155.489 83.7775C155.525 83.7962 155.566 83.8036 155.607 83.7988C155.648 83.7939 155.686 83.777 155.717 83.7503C155.748 83.7235 155.771 83.6881 155.782 83.6485C155.793 83.6089 155.792 83.5668 155.78 83.5276ZM138.376 63.1756L111.242 49.2741C111.206 49.2554 111.176 49.2263 111.156 49.1904C111.136 49.1544 111.127 49.1133 111.13 49.0723C111.133 49.0312 111.148 48.9921 111.174 48.9597C111.199 48.9274 111.233 48.9033 111.272 48.8906L131.749 42.1941C131.801 42.177 131.858 42.1815 131.907 42.2066C131.956 42.2317 131.993 42.2752 132.01 42.3277L138.667 62.9257C138.679 62.9649 138.68 63.0069 138.669 63.0466C138.658 63.0862 138.635 63.1216 138.604 63.1484C138.573 63.1751 138.535 63.192 138.494 63.1968C138.453 63.2017 138.412 63.1943 138.376 63.1756Z" fill="white"/>
</mask>
<g mask="url(#mask17_439_705)">
<path d="M90.9353 41.8806C81.5288 52.7491 124.529 59.099 135.437 73.5043C146.345 87.9096 85.7707 67.7691 85.7707 67.7691L82.2075 44.8051" fill="#357C49"/>
</g>
<path d="M155.78 83.5276L138.391 29.7242C138.374 29.6716 138.337 29.6281 138.288 29.603C138.239 29.5779 138.182 29.5734 138.13 29.5905L84.644 47.0822C84.605 47.095 84.5707 47.119 84.5454 47.1514C84.5201 47.1837 84.5048 47.2229 84.5016 47.2639C84.4984 47.305 84.5074 47.3461 84.5274 47.382C84.5474 47.4179 84.5775 47.4471 84.614 47.4658L155.489 83.7775C155.525 83.7962 155.566 83.8036 155.607 83.7988C155.648 83.7939 155.686 83.777 155.717 83.7503C155.748 83.7235 155.771 83.6881 155.782 83.6485C155.793 83.6089 155.792 83.5668 155.78 83.5276ZM138.376 63.1756L111.242 49.2741C111.206 49.2554 111.176 49.2263 111.156 49.1904C111.136 49.1544 111.127 49.1133 111.13 49.0723C111.133 49.0312 111.148 48.9921 111.174 48.9597C111.199 48.9274 111.233 48.9033 111.272 48.8906L131.749 42.1941C131.801 42.177 131.858 42.1815 131.907 42.2066C131.956 42.2317 131.993 42.2752 132.01 42.3277L138.667 62.9257C138.679 62.9649 138.68 63.0069 138.669 63.0466C138.658 63.0862 138.635 63.1216 138.604 63.1484C138.573 63.1751 138.535 63.192 138.494 63.1968C138.453 63.2017 138.412 63.1943 138.376 63.1756Z" stroke="#190000" stroke-width="0.5" stroke-linecap="round" stroke-linejoin="round"/>
<path d="M138.622 35.0383L136.832 35.6239" stroke="#75AA3C" stroke-width="0.5" stroke-linecap="round" stroke-linejoin="round"/>
<path d="M139.89 38.9602L138.1 39.5458" stroke="#75AA3C" stroke-width="0.5" stroke-linecap="round" stroke-linejoin="round"/>
<path d="M143.692 50.7256L141.902 51.3111" stroke="#75AA3C" stroke-width="0.5" stroke-linecap="round" stroke-linejoin="round"/>
<path d="M144.959 54.6472L143.169 55.2328" stroke="#75AA3C" stroke-width="0.5" stroke-linecap="round" stroke-linejoin="round"/>
<path d="M141.157 42.8821L139.367 43.4676" stroke="#75AA3C" stroke-width="0.5" stroke-linecap="round" stroke-linejoin="round"/>
<path d="M142.425 46.8035L140.634 47.389" stroke="#75AA3C" stroke-width="0.5" stroke-linecap="round" stroke-linejoin="round"/>
<path d="M147.495 62.491L145.705 63.0765" stroke="#75AA3C" stroke-width="0.5" stroke-linecap="round" stroke-linejoin="round"/>
<path d="M150.03 70.3347L148.239 70.9203" stroke="#75AA3C" stroke-width="0.5" stroke-linecap="round" stroke-linejoin="round"/>
<path d="M146.227 58.5693L144.437 59.1549" stroke="#75AA3C" stroke-width="0.5" stroke-linecap="round" stroke-linejoin="round"/>
<path d="M148.762 66.4128L146.972 66.9984" stroke="#75AA3C" stroke-width="0.5" stroke-linecap="round" stroke-linejoin="round"/>
<path d="M151.297 74.2566L149.507 74.8421" stroke="#75AA3C" stroke-width="0.5" stroke-linecap="round" stroke-linejoin="round"/>
<path d="M152.565 78.1785L150.774 78.764" stroke="#75AA3C" stroke-width="0.5" stroke-linecap="round" stroke-linejoin="round"/>
<path d="M90.645 46.4546L91.228 48.2557" stroke="#75AA3C" stroke-width="0.5" stroke-linecap="round" stroke-linejoin="round"/>
<path d="M94.5435 45.1794L95.1264 46.9805" stroke="#75AA3C" stroke-width="0.5" stroke-linecap="round" stroke-linejoin="round"/>
<path d="M106.24 41.3545L106.823 43.1556" stroke="#75AA3C" stroke-width="0.5" stroke-linecap="round" stroke-linejoin="round"/>
<path d="M110.138 40.0796L110.721 41.8807" stroke="#75AA3C" stroke-width="0.5" stroke-linecap="round" stroke-linejoin="round"/>
<path d="M98.4419 43.9045L99.0249 45.7056" stroke="#75AA3C" stroke-width="0.5" stroke-linecap="round" stroke-linejoin="round"/>
<path d="M102.34 42.6296L102.923 44.4307" stroke="#75AA3C" stroke-width="0.5" stroke-linecap="round" stroke-linejoin="round"/>
<path d="M117.936 37.5295L118.519 39.3306" stroke="#75AA3C" stroke-width="0.5" stroke-linecap="round" stroke-linejoin="round"/>
<path d="M125.733 34.9795L126.316 36.7806" stroke="#75AA3C" stroke-width="0.5" stroke-linecap="round" stroke-linejoin="round"/>
<path d="M114.037 38.8044L114.62 40.6055" stroke="#75AA3C" stroke-width="0.5" stroke-linecap="round" stroke-linejoin="round"/>
<path d="M121.834 36.2544L122.417 38.0555" stroke="#75AA3C" stroke-width="0.5" stroke-linecap="round" stroke-linejoin="round"/>
<path d="M129.631 33.7046L130.214 35.5057" stroke="#75AA3C" stroke-width="0.5" stroke-linecap="round" stroke-linejoin="round"/>
<path d="M133.531 32.4294L134.114 34.2305" stroke="#75AA3C" stroke-width="0.5" stroke-linecap="round" stroke-linejoin="round"/>
<path d="M116.146 55.8208C116.358 57.2811 117.73 58.4787 119.197 58.4837" stroke="#75AA3C" stroke-width="0.5" stroke-linecap="round" stroke-linejoin="round"/>
<path d="M90.1964 120.913C90.0169 115.924 88.7923 111.03 86.6028 106.55C85.7712 104.849 84.8041 103.219 83.7109 101.675C75.5518 90.1347 60.9214 84.1925 46.4464 87.8571C31.9717 91.522 21.8809 103.723 20.1247 117.774C19.8882 119.655 19.8035 121.551 19.8712 123.445C20.0507 128.434 21.2753 133.328 23.4648 137.808C32.0525 137.53 43.5861 136.023 57.6093 132.472C71.6325 128.922 82.5015 124.758 90.1964 120.913Z" fill="#9879C9"/>
<mask id="mask18_439_705" style="mask-type:luminance" maskUnits="userSpaceOnUse" x="19" y="86" width="72" height="52">
<path d="M90.1964 120.913C90.0169 115.924 88.7923 111.03 86.6028 106.55C85.7712 104.849 84.8041 103.219 83.7109 101.675C75.5518 90.1347 60.9214 84.1925 46.4464 87.8571C31.9717 91.522 21.8809 103.723 20.1247 117.774C19.8882 119.655 19.8035 121.551 19.8712 123.445C20.0507 128.434 21.2753 133.328 23.4648 137.808C32.0525 137.53 43.5861 136.023 57.6093 132.472C71.6325 128.922 82.5015 124.758 90.1964 120.913Z" fill="white"/>
</mask>
<g mask="url(#mask18_439_705)">
<path d="M32.3856 82.0226C107.269 86.4827 91.8946 127.798 38.4987 136.367C-14.8973 144.937 109.067 130.712 109.067 130.712L107.043 89.7047L50.2581 78.6111L35.1004 86.3135" fill="#6F4EB9"/>
</g>
<path d="M90.1964 120.913C90.0169 115.924 88.7923 111.03 86.6028 106.55C85.7712 104.849 84.8041 103.219 83.7109 101.675C75.5518 90.1347 60.9214 84.1925 46.4464 87.8571C31.9717 91.522 21.8809 103.723 20.1247 117.774C19.8882 119.655 19.8035 121.551 19.8712 123.445C20.0507 128.434 21.2753 133.328 23.4648 137.808C32.0525 137.53 43.5861 136.023 57.6093 132.472C71.6325 128.922 82.5015 124.758 90.1964 120.913Z" stroke="#190000" stroke-width="0.5" stroke-linecap="round" stroke-linejoin="round"/>
<path d="M26.3564 142.683C34.5158 154.224 49.1462 160.166 63.621 156.501C78.0959 152.836 88.1867 140.635 89.9429 126.584C81.2767 130.622 70.4511 134.365 58.8194 137.31C47.1877 140.255 35.8899 142.113 26.3564 142.683Z" fill="#9879C9"/>
<mask id="mask19_439_705" style="mask-type:luminance" maskUnits="userSpaceOnUse" x="26" y="126" width="64" height="32">
<path d="M26.3564 142.683C34.5158 154.224 49.1462 160.166 63.621 156.501C78.0959 152.836 88.1867 140.635 89.9429 126.584C81.2767 130.622 70.4511 134.365 58.8194 137.31C47.1877 140.255 35.8899 142.113 26.3564 142.683Z" fill="white"/>
</mask>
<g mask="url(#mask19_439_705)">
<path d="M42.3752 160.82C20.9162 142.872 62.9625 139.201 81.74 128.801C100.517 118.401 8.83594 136.549 8.83594 136.549L25.4076 156.407" fill="#6F4EB9"/>
</g>
<path d="M26.3564 142.683C34.5158 154.224 49.1462 160.166 63.621 156.501C78.0959 152.836 88.1867 140.635 89.9429 126.584C81.2767 130.622 70.4511 134.365 58.8194 137.31C47.1877 140.255 35.8899 142.113 26.3564 142.683Z" stroke="#190000" stroke-width="0.5" stroke-linecap="round" stroke-linejoin="round"/>
<path d="M108.888 108.544C107.699 103.792 101.058 101.416 89.1509 101.486C87.4164 101.496 85.5946 101.563 83.7104 101.675C84.8036 103.219 85.7708 104.849 86.6023 106.55C97.4481 106.2 103.591 107.812 104.079 109.762C104.567 111.712 99.9144 116.057 90.196 120.913C82.501 124.758 71.632 128.922 57.6088 132.472C43.5857 136.023 32.0521 137.53 23.4644 137.808C12.6189 138.159 6.47594 136.546 5.98776 134.597C5.50014 132.647 10.1524 128.301 19.8708 123.445C19.803 121.551 19.8878 119.655 20.1243 117.774C18.4117 118.572 16.7752 119.381 15.2428 120.198C4.72149 125.807 -0.0098511 131.062 1.17925 135.814C2.36831 140.566 9.00882 142.942 20.9161 142.872C22.6506 142.863 24.4724 142.796 26.3564 142.683C35.8898 142.113 47.1876 140.255 58.8193 137.31C70.451 134.365 81.2766 130.622 89.9427 126.584C91.6553 125.786 93.2916 124.978 94.8242 124.16C105.345 118.551 110.077 113.296 108.888 108.544Z" fill="#409159"/>
<mask id="mask20_439_705" style="mask-type:luminance" maskUnits="userSpaceOnUse" x="1" y="101" width="109" height="42">
<path d="M108.888 108.544C107.699 103.792 101.058 101.416 89.1509 101.486C87.4164 101.496 85.5946 101.563 83.7104 101.675C84.8036 103.219 85.7708 104.849 86.6023 106.55C97.4481 106.2 103.591 107.812 104.079 109.762C104.567 111.712 99.9144 116.057 90.196 120.913C82.501 124.758 71.632 128.922 57.6088 132.472C43.5857 136.023 32.0521 137.53 23.4644 137.808C12.6189 138.159 6.47594 136.546 5.98776 134.597C5.50014 132.647 10.1524 128.301 19.8708 123.445C19.803 121.551 19.8878 119.655 20.1243 117.774C18.4117 118.572 16.7752 119.381 15.2428 120.198C4.72149 125.807 -0.0098511 131.062 1.17925 135.814C2.36831 140.566 9.00882 142.942 20.9161 142.872C22.6506 142.863 24.4724 142.796 26.3564 142.683C35.8898 142.113 47.1876 140.255 58.8193 137.31C70.451 134.365 81.2766 130.622 89.9427 126.584C91.6553 125.786 93.2916 124.978 94.8242 124.16C105.345 118.551 110.077 113.296 108.888 108.544Z" fill="white"/>
</mask>
<g mask="url(#mask20_439_705)">
<path d="M-6.97949 122.179C26.0507 116.945 22.8834 131.869 22.8834 131.869L31.0278 113.335L17.9063 110.6" fill="#357C49"/>
<path d="M74.6911 96.4714C91.2062 98.739 93.016 110.6 93.016 110.6L78.9895 113.335L74.4648 108.98" fill="#357C49"/>
</g>
<path d="M108.888 108.544C107.699 103.792 101.058 101.416 89.1509 101.486C87.4164 101.496 85.5946 101.563 83.7104 101.675C84.8036 103.219 85.7708 104.849 86.6023 106.55C97.4481 106.2 103.591 107.812 104.079 109.762C104.567 111.712 99.9144 116.057 90.196 120.913C82.501 124.758 71.632 128.922 57.6088 132.472C43.5857 136.023 32.0521 137.53 23.4644 137.808C12.6189 138.159 6.47594 136.546 5.98776 134.597C5.50014 132.647 10.1524 128.301 19.8708 123.445C19.803 121.551 19.8878 119.655 20.1243 117.774C18.4117 118.572 16.7752 119.381 15.2428 120.198C4.72149 125.807 -0.00985114 131.062 1.17925 135.814C2.36831 140.566 9.00882 142.942 20.9161 142.872C22.6506 142.863 24.4724 142.796 26.3564 142.683C35.8898 142.113 47.1876 140.255 58.8193 137.31C70.451 134.365 81.2766 130.622 89.9427 126.584C91.6553 125.786 93.2916 124.978 94.8242 124.16C105.345 118.551 110.077 113.296 108.888 108.544Z" stroke="#190000" stroke-width="0.5" stroke-linecap="round" stroke-linejoin="round"/>
<path d="M54.0568 103.274C52.7202 105.575 50.8499 107.516 48.6055 108.932L54.0568 103.274Z" fill="#190000"/>
<path d="M54.0568 103.274C52.7202 105.575 50.8499 107.516 48.6055 108.932" stroke="#6F4EB9" stroke-width="0.5" stroke-linecap="round" stroke-linejoin="round"/>
<path d="M72.377 146.055C71.8365 146.803 71.1424 147.424 70.3418 147.877L72.377 146.055Z" fill="#190000"/>
<path d="M72.377 146.055C71.8365 146.803 71.1424 147.424 70.3418 147.877" stroke="#6F4EB9" stroke-width="0.5" stroke-linecap="round" stroke-linejoin="round"/>
<path d="M13.994 139.667L11.9673 141.498L13.994 139.667Z" fill="#190000"/>
<path d="M13.994 139.667L11.9673 141.498" stroke="#75AA3C" stroke-width="0.5" stroke-linecap="round" stroke-linejoin="round"/>
</svg>
